<svg xmlns="http://www.w3.org/2000/svg" viewBox="0 0 1024 1024"><defs><linearGradient id="ground" x1="0" y1="0" x2="0" y2="1"><stop offset="0" stop-color="#7C4A73"/><stop offset="1" stop-color="#5E3657"/></linearGradient></defs><rect width="1024" height="1024" rx="0" fill="url(#ground)"/><clipPath id="tag"><path d="M450 208 H600 Q628 208 648 228 L760 340 Q788 368 760 396 L648 508 Q628 528 600 528 H450 Z"/></clipPath><g transform="translate(512 512) scale(0.9) translate(-570 -523)"><path d="M640 368 C 690 300, 790 318, 792 410 C 794 500, 716 540, 736 640 C 746 690, 790 712, 826 700" fill="none" stroke="#F3B3E4" stroke-width="24" stroke-linecap="round"/><path d="M450 208 H600 Q628 208 648 228 L760 340 Q788 368 760 396 L648 508 Q628 528 600 528 H450 Z" fill="#FBFAF9"/><path d="M300 248 Q300 208 340 208 H432 V800 L410 838 L388 800 L366 838 L344 800 L322 838 L300 800 Z" fill="#FBFAF9"/><rect x="326" y="250" width="80" height="20" rx="10" fill="#6B3F63" opacity=".3"/><rect x="326" y="314" width="56" height="20" rx="10" fill="#6B3F63" opacity=".3"/><rect x="326" y="378" width="72" height="20" rx="10" fill="#6B3F63" opacity=".3"/><rect x="326" y="442" width="48" height="20" rx="10" fill="#6B3F63" opacity=".3"/><rect x="326" y="506" width="80" height="20" rx="10" fill="#6B3F63" opacity=".3"/><rect x="326" y="570" width="64" height="20" rx="10" fill="#6B3F63" opacity=".3"/><rect x="326" y="634" width="40" height="20" rx="10" fill="#6B3F63" opacity=".3"/><rect x="326" y="698" width="72" height="20" rx="10" fill="#6B3F63" opacity=".3"/><rect x="326" y="762" width="56" height="20" rx="10" fill="#6B3F63" opacity=".3"/><path d="M640 368 C 690 300, 790 318, 792 410 C 794 500, 716 540, 736 640 C 746 690, 790 712, 826 700" fill="none" stroke="#6B3F63" stroke-width="24" stroke-linecap="round" clip-path="url(#tag)"/><circle cx="640" cy="368" r="40" fill="#6B3F63"/></g></svg>
